<?xml version="1.0" encoding="UTF-8"?>
<svg version="1.1" xmlns="http://www.w3.org/2000/svg" width="705" height="670">
<path d="M0 0 C232.65 0 465.3 0 705 0 C705 221.1 705 442.2 705 670 C472.35 670 239.7 670 0 670 C0 448.9 0 227.8 0 0 Z " fill="#BCBE96" transform="translate(0,0)"/>
<path d="M0 0 C1.15074509 -0.01197418 2.30149017 -0.02394836 3.48710632 -0.0362854 C7.26828122 -0.06833206 11.04830259 -0.06366996 14.82958984 -0.05566406 C17.46797073 -0.06411677 20.10634804 -0.07375797 22.74472046 -0.08453369 C28.26400387 -0.1027259 33.78296341 -0.09860912 39.30224609 -0.08300781 C45.66990228 -0.06546363 52.03630857 -0.09193461 58.40377963 -0.13997436 C64.55005607 -0.18461049 70.69575413 -0.1900909 76.84217453 -0.18012238 C79.44887094 -0.18048213 82.0555898 -0.19176628 84.66218948 -0.21422577 C88.3057014 -0.24146229 91.94640122 -0.22406537 95.58984375 -0.1953125 C97.19999107 -0.22128006 97.19999107 -0.22128006 98.84266663 -0.24777222 C104.208998 -0.15716763 107.33929123 0.21660621 111.24057007 4.08099365 C112.23728503 5.26223492 113.21489053 6.46008003 114.16552734 7.67871094 C117.17863709 10.77111304 120.28248135 13.66243452 123.54052734 16.49121094 C127.24034495 19.74237957 130.44431141 23.18754713 133.61865234 26.94433594 C135.21824142 28.83496643 135.21824142 28.83496643 137.66552734 30.67871094 C139.98347773 32.53307125 141.68721416 34.36502564 143.60302734 36.61621094 C145.70421875 39.08203426 147.75375233 41.28863773 150.29052734 43.30371094 C153.35742498 45.83723507 155.62344581 48.62821309 158.16552734 51.67871094 C159.15552734 52.50371094 160.14552734 53.32871094 161.16552734 54.17871094 C163.44364782 56.07714467 165.0868438 57.66974891 166.91552734 59.92871094 C168.87184618 62.70231032 168.87184618 62.70231032 171.16552734 63.67871094 C171.18887487 84.47103478 171.20651565 105.26335647 171.21733952 126.05569077 C171.22249852 135.70965767 171.22953372 145.36361644 171.2409668 155.01757812 C171.25092568 163.43074685 171.25738365 171.84390968 171.25961584 180.25708413 C171.26092089 184.71287786 171.26399383 189.16865472 171.2712574 193.62444305 C171.27803657 197.81698475 171.28014042 202.0095026 171.27863503 206.20204926 C171.2789105 207.74197519 171.28090438 209.28190192 171.28473282 210.82182312 C171.28969966 212.92240287 171.28851455 215.02289233 171.28578186 217.12347412 C171.28716455 218.88778589 171.28716455 218.88778589 171.28857517 220.68774033 C171.18473848 223.21173844 170.90855006 225.27939016 170.16552734 227.67871094 C169.50552734 227.67871094 168.84552734 227.67871094 168.16552734 227.67871094 C168.05337891 228.57009766 168.05337891 228.57009766 167.93896484 229.47949219 C166.89436193 232.449752 165.42763935 233.20628121 162.79052734 234.86621094 C161.99904297 235.37539063 161.20755859 235.88457031 160.39208984 236.40917969 C156.33388151 238.7230704 153.11119751 238.80976679 148.51190186 238.82588196 C147.8323243 238.82955865 147.15274674 238.83323533 146.45257592 238.83702344 C144.170362 238.84805597 141.88819362 238.85190337 139.60595703 238.85571289 C137.97157141 238.86197786 136.3371872 238.8686247 134.70280457 238.87562561 C129.33101391 238.89666417 123.95922298 238.90702771 118.58740234 238.91699219 C116.73795812 238.9210398 114.88851405 238.92515672 113.03907013 238.92934227 C104.35032862 238.94839338 95.6615956 238.96262466 86.97283721 238.97095424 C76.94412781 238.98072718 66.91563911 239.0070485 56.88700747 239.04745513 C49.13488285 239.07761728 41.38282148 239.09242321 33.63063931 239.09573525 C29.00088032 239.09808561 24.37135711 239.1070442 19.74166107 239.13219643 C15.38480646 239.15548396 11.02834276 239.15970771 6.67144203 239.14943504 C5.0747097 239.14893974 3.47795807 239.15525869 1.88128471 239.16899109 C-7.95592501 239.24884537 -13.89085773 238.83584167 -21.58447266 232.36621094 C-26.44350257 226.56236965 -27.27720269 221.27126937 -27.20869446 213.96736145 C-27.21266886 213.11482385 -27.21664327 212.26228625 -27.22073811 211.38391417 C-27.23032729 208.54035735 -27.21856361 205.69730226 -27.20678711 202.85375977 C-27.20921613 200.80998042 -27.21293652 198.76620226 -27.21784973 196.72242737 C-27.22724539 191.18136409 -27.21784529 185.64047785 -27.2045176 180.09942842 C-27.19319483 174.30104184 -27.19731114 168.50266387 -27.19926453 162.70426941 C-27.20014703 152.97054148 -27.18907449 143.23688325 -27.1706543 133.50317383 C-27.14946955 122.24401269 -27.14598086 110.98495353 -27.15221626 99.72577649 C-27.15790654 88.8970065 -27.15226936 78.06827248 -27.14104271 67.23950768 C-27.1363941 62.62914046 -27.13552398 58.01879521 -27.13762856 53.40842628 C-27.13950927 47.98377098 -27.13142419 42.5592198 -27.11556816 37.13458824 C-27.1113186 35.14153346 -27.11047925 33.14846814 -27.11325836 31.15541077 C-27.11647104 28.43986197 -27.10742152 25.72462611 -27.09516907 23.0091095 C-27.09894839 22.21621846 -27.10272771 21.42332741 -27.10662156 20.60640937 C-27.05180624 13.76230075 -27.05180624 13.76230075 -24.83447266 10.67871094 C-24.17447266 10.34871094 -23.51447266 10.01871094 -22.83447266 9.67871094 C-22.54335791 9.05392979 -22.25224316 8.42914864 -21.95230675 7.78543472 C-17.81678087 -0.00857585 -7.68715341 -0.05016831 0 0 Z " fill="#BBBD96" transform="translate(284.83447265625,214.3212890625)"/>
<path d="M0 0 C1.15074509 -0.01197418 2.30149017 -0.02394836 3.48710632 -0.0362854 C7.26828122 -0.06833206 11.04830259 -0.06366996 14.82958984 -0.05566406 C17.46797073 -0.06411677 20.10634804 -0.07375797 22.74472046 -0.08453369 C28.26400387 -0.1027259 33.78296341 -0.09860912 39.30224609 -0.08300781 C45.66990228 -0.06546363 52.03630857 -0.09193461 58.40377963 -0.13997436 C64.55005607 -0.18461049 70.69575413 -0.1900909 76.84217453 -0.18012238 C79.44887094 -0.18048213 82.0555898 -0.19176628 84.66218948 -0.21422577 C88.3057014 -0.24146229 91.94640122 -0.22406537 95.58984375 -0.1953125 C97.19999107 -0.22128006 97.19999107 -0.22128006 98.84266663 -0.24777222 C104.208998 -0.15716763 107.33929123 0.21660621 111.24057007 4.08099365 C112.23728503 5.26223492 113.21489053 6.46008003 114.16552734 7.67871094 C117.17863709 10.77111304 120.28248135 13.66243452 123.54052734 16.49121094 C127.24034495 19.74237957 130.44431141 23.18754713 133.61865234 26.94433594 C135.21824142 28.83496643 135.21824142 28.83496643 137.66552734 30.67871094 C139.98347773 32.53307125 141.68721416 34.36502564 143.60302734 36.61621094 C145.70421875 39.08203426 147.75375233 41.28863773 150.29052734 43.30371094 C153.35742498 45.83723507 155.62344581 48.62821309 158.16552734 51.67871094 C159.15552734 52.50371094 160.14552734 53.32871094 161.16552734 54.17871094 C163.44364782 56.07714467 165.0868438 57.66974891 166.91552734 59.92871094 C168.87184618 62.70231032 168.87184618 62.70231032 171.16552734 63.67871094 C171.18887487 84.47103478 171.20651565 105.26335647 171.21733952 126.05569077 C171.22249852 135.70965767 171.22953372 145.36361644 171.2409668 155.01757812 C171.25092568 163.43074685 171.25738365 171.84390968 171.25961584 180.25708413 C171.26092089 184.71287786 171.26399383 189.16865472 171.2712574 193.62444305 C171.27803657 197.81698475 171.28014042 202.0095026 171.27863503 206.20204926 C171.2789105 207.74197519 171.28090438 209.28190192 171.28473282 210.82182312 C171.28969966 212.92240287 171.28851455 215.02289233 171.28578186 217.12347412 C171.28716455 218.88778589 171.28716455 218.88778589 171.28857517 220.68774033 C171.18473848 223.21173844 170.90855006 225.27939016 170.16552734 227.67871094 C169.50552734 227.67871094 168.84552734 227.67871094 168.16552734 227.67871094 C168.05337891 228.57009766 168.05337891 228.57009766 167.93896484 229.47949219 C166.89436193 232.449752 165.42763935 233.20628121 162.79052734 234.86621094 C161.99904297 235.37539063 161.20755859 235.88457031 160.39208984 236.40917969 C156.33388151 238.7230704 153.11119751 238.80976679 148.51190186 238.82588196 C147.8323243 238.82955865 147.15274674 238.83323533 146.45257592 238.83702344 C144.170362 238.84805597 141.88819362 238.85190337 139.60595703 238.85571289 C137.97157141 238.86197786 136.3371872 238.8686247 134.70280457 238.87562561 C129.33101391 238.89666417 123.95922298 238.90702771 118.58740234 238.91699219 C116.73795812 238.9210398 114.88851405 238.92515672 113.03907013 238.92934227 C104.35032862 238.94839338 95.6615956 238.96262466 86.97283721 238.97095424 C76.94412781 238.98072718 66.91563911 239.0070485 56.88700747 239.04745513 C49.13488285 239.07761728 41.38282148 239.09242321 33.63063931 239.09573525 C29.00088032 239.09808561 24.37135711 239.1070442 19.74166107 239.13219643 C15.38480646 239.15548396 11.02834276 239.15970771 6.67144203 239.14943504 C5.0747097 239.14893974 3.47795807 239.15525869 1.88128471 239.16899109 C-7.95592501 239.24884537 -13.89085773 238.83584167 -21.58447266 232.36621094 C-26.44350257 226.56236965 -27.27720269 221.27126937 -27.20869446 213.96736145 C-27.21266886 213.11482385 -27.21664327 212.26228625 -27.22073811 211.38391417 C-27.23032729 208.54035735 -27.21856361 205.69730226 -27.20678711 202.85375977 C-27.20921613 200.80998042 -27.21293652 198.76620226 -27.21784973 196.72242737 C-27.22724539 191.18136409 -27.21784529 185.64047785 -27.2045176 180.09942842 C-27.19319483 174.30104184 -27.19731114 168.50266387 -27.19926453 162.70426941 C-27.20014703 152.97054148 -27.18907449 143.23688325 -27.1706543 133.50317383 C-27.14946955 122.24401269 -27.14598086 110.98495353 -27.15221626 99.72577649 C-27.15790654 88.8970065 -27.15226936 78.06827248 -27.14104271 67.23950768 C-27.1363941 62.62914046 -27.13552398 58.01879521 -27.13762856 53.40842628 C-27.13950927 47.98377098 -27.13142419 42.5592198 -27.11556816 37.13458824 C-27.1113186 35.14153346 -27.11047925 33.14846814 -27.11325836 31.15541077 C-27.11647104 28.43986197 -27.10742152 25.72462611 -27.09516907 23.0091095 C-27.09894839 22.21621846 -27.10272771 21.42332741 -27.10662156 20.60640937 C-27.05180624 13.76230075 -27.05180624 13.76230075 -24.83447266 10.67871094 C-24.17447266 10.34871094 -23.51447266 10.01871094 -22.83447266 9.67871094 C-22.54335791 9.05392979 -22.25224316 8.42914864 -21.95230675 7.78543472 C-17.81678087 -0.00857585 -7.68715341 -0.05016831 0 0 Z M-11.83447266 17.67871094 C-12.23510754 20.50158469 -12.3746074 22.93840404 -12.34240723 25.76391602 C-12.34864719 26.59740727 -12.35488715 27.43089853 -12.3613162 28.2896471 C-12.37731785 31.09279678 -12.36461417 33.8950855 -12.35205078 36.69824219 C-12.35746872 38.70364898 -12.36458952 40.70905179 -12.37329102 42.71444702 C-12.39156631 48.16894108 -12.38443945 53.62313339 -12.37177467 59.0776329 C-12.36166878 64.77775657 -12.37103363 70.47785387 -12.37731934 76.17797852 C-12.38460278 85.75151218 -12.37498974 95.32492254 -12.35595703 104.8984375 C-12.33418702 115.97697106 -12.3412379 127.05521019 -12.36326265 138.13373661 C-12.38139678 147.63442797 -12.3839847 157.13503054 -12.37350798 166.6357336 C-12.36726212 172.31495428 -12.3664674 177.99403644 -12.37965393 183.67324829 C-12.39118289 189.01176404 -12.38324077 194.34989908 -12.3600769 199.68837357 C-12.35477399 201.65120434 -12.35633046 203.614067 -12.36512756 205.57688522 C-12.37600438 208.24952912 -12.36241548 210.92094118 -12.34240723 213.59350586 C-12.35133011 214.37647443 -12.360253 215.159443 -12.36944628 215.96613789 C-12.32310219 219.14165425 -12.26192358 221.15709507 -10.21032619 223.66064739 C-7.10931618 224.98944363 -4.69054961 225.05341711 -1.31288147 225.05293274 C-0.65962322 225.05690715 -0.00636497 225.06088155 0.66668898 225.06497639 C2.85394232 225.07459486 5.04054809 225.0627846 7.2277832 225.05102539 C8.79659771 225.05345354 10.36541067 225.05717308 11.93421936 225.06208801 C16.19459546 225.0714983 20.45474188 225.06207005 24.71510005 225.04875588 C29.17306857 225.03744283 33.63102576 225.04154883 38.08900452 225.04350281 C45.57670851 225.04438592 53.064322 225.03330254 60.55200195 225.01489258 C69.20777462 224.99373241 77.86341461 224.99021334 86.51920789 224.99645454 C94.84541445 225.00215068 103.1715743 224.99649908 111.49777412 224.98528099 C115.04112169 224.98063754 118.58444067 224.97976007 122.12779045 224.98186684 C126.30155935 224.98375144 130.47519336 224.97563259 134.6489315 224.95980644 C136.18037101 224.9555662 137.71182421 224.9547113 139.24326706 224.95749664 C141.33464325 224.9607231 143.42561763 224.95162524 145.51695251 224.93940735 C147.27208869 224.93632804 147.27208869 224.93632804 149.06268215 224.93318653 C152.57828612 224.79805391 152.57828612 224.79805391 157.16552734 222.67871094 C157.16552734 175.15871094 157.16552734 127.63871094 157.16552734 78.67871094 C138.35552734 78.34871094 119.54552734 78.01871094 100.16552734 77.67871094 C94.54052734 72.05371094 94.54052734 72.05371094 94.50610352 66.78686523 C94.48646042 65.62603928 94.46681732 64.46521332 94.44657898 63.26921082 C94.45051163 62.02633804 94.45444427 60.78346527 94.45849609 59.50292969 C94.43581413 57.58248589 94.43581413 57.58248589 94.41267395 55.62324524 C94.3728935 52.23165024 94.36263822 48.84059226 94.35864258 45.4487915 C94.34929767 41.98294862 94.3118759 38.51741954 94.27685547 35.05175781 C94.21392161 28.26073525 94.17905267 21.47000191 94.16552734 14.67871094 C80.93549562 14.60925658 67.70550713 14.55592279 54.47533035 14.52327442 C48.33228372 14.5076063 42.18936165 14.48634688 36.04638672 14.45239258 C30.12011233 14.41984037 24.19395789 14.40186656 18.26760101 14.39407921 C16.00452536 14.38852828 13.74145641 14.37768894 11.4784317 14.36152077 C8.31311256 14.33980182 5.1482916 14.33674174 1.98291016 14.33813477 C1.04351593 14.32734894 0.1041217 14.31656311 -0.86373901 14.30545044 C-1.72748138 14.30957443 -2.59122375 14.31369843 -3.48114014 14.31794739 C-4.22963604 14.31518201 -4.97813194 14.31241663 -5.74930954 14.30956745 C-8.65915509 14.82470726 -9.85562424 15.44895607 -11.83447266 17.67871094 Z " fill="#272420" transform="translate(284.83447265625,214.3212890625)"/>
<path d="M0 0 C0.89024368 -0.00990463 1.78048737 -0.01980927 2.69770813 -0.03001404 C3.67181641 -0.02551239 4.64592468 -0.02101074 5.64955139 -0.01637268 C7.19138847 -0.02666756 7.19138847 -0.02666756 8.76437378 -0.03717041 C12.17033101 -0.05550776 15.57583066 -0.0515909 18.98182678 -0.0459137 C21.3445043 -0.05047221 23.70718049 -0.05577679 26.06985474 -0.0617981 C31.02551149 -0.07074289 35.9810072 -0.0682905 40.93666077 -0.05836487 C47.29359752 -0.04687465 53.64997885 -0.06708111 60.00684261 -0.09628201 C64.88726342 -0.11461079 69.76755033 -0.11435812 74.6479969 -0.10864449 C76.99200278 -0.10849086 79.33601751 -0.11456916 81.67999077 -0.12693596 C84.95535696 -0.14178069 88.22968682 -0.13121602 91.50502014 -0.11402893 C92.96314621 -0.12853088 92.96314621 -0.12853088 94.45072937 -0.14332581 C100.99563817 -0.07125531 100.99563817 -0.07125531 104.24429321 2.23544312 C106.17768176 5.21257738 106.21147492 6.89954225 105.64198303 10.38768005 C104.24330139 13.03865051 104.24330139 13.03865051 101.64198303 15.38768005 C98.27759011 16.14874975 94.95809414 16.07049817 91.52088928 16.03465271 C90.49285187 16.04341431 89.46481445 16.0521759 88.40562439 16.061203 C85.00481558 16.08322343 81.60530524 16.06863388 78.20448303 16.05174255 C75.84323374 16.0551099 73.48198614 16.05996183 71.1207428 16.0662384 C66.17094935 16.07361337 61.2216069 16.0628835 56.27186584 16.03953552 C49.92264916 16.01104819 43.57448917 16.02744871 37.22531128 16.05739784 C32.34913653 16.0754535 27.47321289 16.06972057 22.59703064 16.05675888 C20.2558225 16.05342012 17.91459167 16.05752838 15.57341003 16.06915665 C12.30268345 16.08183612 9.03367515 16.06252685 5.76307678 16.03465271 C4.30730728 16.04983444 4.30730728 16.04983444 2.8221283 16.06532288 C-3.70347256 15.96213384 -3.70347256 15.96213384 -6.99449158 13.07380676 C-8.85658931 9.40549924 -8.44497915 7.30074392 -7.35801697 3.38768005 C-5.1346375 0.47200656 -3.60877426 0.01133349 0 0 Z " fill="#2A2923" transform="translate(308.35801696777344,361.61231994628906)"/>
<path d="M0 0 C0.900103 -0.00708481 1.80020599 -0.01416962 2.72758484 -0.02146912 C3.7126149 -0.0189917 4.69764496 -0.01651428 5.71252441 -0.01396179 C7.27140129 -0.02162819 7.27140129 -0.02162819 8.86177063 -0.02944946 C12.30491863 -0.04337591 15.74786718 -0.04238654 19.19104004 -0.04008484 C21.57853266 -0.04396975 23.9660246 -0.04830399 26.35351562 -0.05307007 C31.36041504 -0.06053861 36.36724394 -0.06023614 41.37414551 -0.05497742 C47.80058533 -0.04917839 54.22673736 -0.06612142 60.65312958 -0.08932209 C65.58410336 -0.10402941 70.51500732 -0.10493528 75.44599915 -0.10181236 C77.81594921 -0.10232697 80.18590303 -0.10759064 82.55583191 -0.11762428 C85.86476543 -0.12991469 89.17313172 -0.12324158 92.48205566 -0.11161804 C93.46708572 -0.11926178 94.45211578 -0.12690552 95.46699524 -0.13478088 C96.81714973 -0.12425941 96.81714973 -0.12425941 98.19458008 -0.11352539 C98.97697304 -0.11369313 99.759366 -0.11386087 100.56546783 -0.1140337 C103.12572319 0.35815563 104.01062162 1.23580092 105.59729004 3.26069641 C106.03088379 5.19819641 106.03088379 5.19819641 106.03479004 7.26069641 C106.05412598 7.94132141 106.07346191 8.62194641 106.09338379 9.32319641 C105.3807642 12.10634064 103.9965916 12.76444071 101.59729004 14.26069641 C99.45803738 14.63821983 99.45803738 14.63821983 97.11228943 14.64164734 C96.21922592 14.65010681 95.32616241 14.65856628 94.40603638 14.6672821 C93.43395233 14.66120941 92.46186829 14.65513672 91.46032715 14.64888 C89.91586159 14.65676544 89.91586159 14.65676544 88.3401947 14.66481018 C84.93485369 14.67802023 81.5299796 14.66926892 78.12463379 14.65913391 C75.7609905 14.66115419 73.39734782 14.66406525 71.03370667 14.66783142 C66.07982448 14.67225602 61.12610454 14.6658186 56.17224121 14.65180969 C49.81419193 14.63470858 43.45652228 14.64456428 37.0984869 14.66252708 C32.21811549 14.67335317 27.3378345 14.66992411 22.4574604 14.66214371 C20.11263548 14.66013894 17.7678024 14.66261063 15.42298698 14.66958237 C12.15005524 14.67717837 8.87774379 14.66561856 5.6048584 14.64888 C4.63075012 14.6549527 3.65664185 14.66102539 2.65301514 14.6672821 C1.76277145 14.65882263 0.87252777 14.65036316 -0.04469299 14.64164734 C-1.20527269 14.63995072 -1.20527269 14.63995072 -2.38929844 14.63821983 C-4.93980887 14.15998803 -5.82894732 13.28757655 -7.40270996 11.26069641 C-7.80114746 9.06929016 -7.80114746 9.06929016 -7.77770996 6.69819641 C-7.78544434 5.91315735 -7.79317871 5.12811829 -7.80114746 4.31929016 C-7.66966309 3.63995422 -7.53817871 2.96061829 -7.40270996 2.26069641 C-4.26997356 0.17220548 -3.5633992 0.00934977 0 0 Z " fill="#25221E" transform="translate(308.4027099609375,326.7393035888672)"/>
<path d="M0 0 C4.18956139 2.09478069 6.89637454 4.64100485 10.12109375 7.92578125 C10.7028688 8.5103862 11.28464386 9.09499115 11.88404846 9.6973114 C13.73995842 11.56438702 15.58880352 13.43828434 17.4375 15.3125 C18.67727058 16.5623092 19.91750025 17.81166318 21.15820312 19.06054688 C23.44744394 21.3660834 25.73395135 23.67425764 28.01733398 25.9855957 C33.1081943 31.14423841 33.1081943 31.14423841 38.3125 36.1875 C40 38 40 38 40 40 C26.8 40 13.6 40 0 40 C0 26.8 0 13.6 0 0 Z " fill="#B7BA96" transform="translate(394,239)"/>
<path d="M0 0 C0.33 0 0.66 0 1 0 C1.12375 1.11375 1.2475 2.2275 1.375 3.375 C1.6465813 7.03103677 1.6465813 7.03103677 4 9 C5.93824615 9.31298787 5.93824615 9.31298787 8.18875122 9.2784729 C9.50548325 9.29521812 9.50548325 9.29521812 10.84881592 9.31230164 C11.81410217 9.31446182 12.77938843 9.31662201 13.77392578 9.31884766 C14.78858917 9.32889328 15.80325256 9.3389389 16.84866333 9.34928894 C20.2142071 9.38026614 23.57967082 9.39719642 26.9453125 9.4140625 C29.27416683 9.43276245 31.6030143 9.45233497 33.93185425 9.4727478 C40.07045458 9.52419887 46.20907692 9.56375505 52.34777832 9.60089111 C58.60821024 9.6408496 64.86854963 9.69197903 71.12890625 9.7421875 C83.41920596 9.83910035 95.70955775 9.92345581 108 10 C108 10.33 108 10.66 108 11 C106.74354675 11.01030746 105.48709351 11.02061493 104.19256592 11.03123474 C92.36198209 11.12891542 80.53145147 11.23164451 68.70095444 11.33933926 C62.61852584 11.39454561 56.53609242 11.44796205 50.45361328 11.49731445 C44.58566322 11.54499161 38.71777177 11.59733579 32.84989166 11.65294075 C30.60917874 11.67334908 28.36844974 11.69206468 26.12770844 11.70907402 C22.99360844 11.73315157 19.85961913 11.7632018 16.72558594 11.79467773 C15.79554245 11.8004332 14.86549896 11.80618866 13.90727234 11.81211853 C13.05194412 11.82190735 12.19661591 11.83169617 11.31536865 11.84178162 C10.57424709 11.84823417 9.83312553 11.85468672 9.06954575 11.8613348 C6.97422917 11.93242956 6.97422917 11.93242956 4.91778946 12.57238865 C3 13 3 13 0 12 C0 8.04 0 4.08 0 0 Z " fill="#A9AA92" transform="translate(300,331)"/>
<path d="M0 0 C4.67834007 0 5.7309841 0.8217901 9 4 C9 4.99 9 5.98 9 7 C7.02 7 5.04 7 3 7 C2.67 6.01 2.34 5.02 2 4 C1.34870203 2.65909241 0.68486725 1.32407669 0 0 Z " fill="#AFB19A" transform="translate(423,271)"/>
<path d="M0 0 C2.0625 -0.4375 2.0625 -0.4375 5 0 C7.57260172 2.12080183 9.79254499 4.50627561 12 7 C11.67 7.66 11.34 8.32 11 9 C10.01 9 9.02 9 8 9 C7.67 8.01 7.34 7.02 7 6 C5.37051936 4.77554716 5.37051936 4.77554716 3.4375 3.8125 C2.303125 3.214375 1.16875 2.61625 0 2 C0 1.34 0 0.68 0 0 Z " fill="#222116" transform="translate(424,252)"/>
<path d="M0 0 C3.375 -0.125 3.375 -0.125 7 0 C7.66 0.66 8.32 1.32 9 2 C8.34 2 7.68 2 7 2 C7.99 3.32 8.98 4.64 10 6 C9.34 6 8.68 6 8 6 C7.67 6.66 7.34 7.32 7 8 C5.83035398 6.8572081 4.66435444 5.71068285 3.5 4.5625 C2.8503125 3.92441406 2.200625 3.28632813 1.53125 2.62890625 C0 1 0 1 0 0 Z " fill="#A7A98E" transform="translate(425,248)"/>
<path d="M0 0 C3.74171065 0.50563657 5.5571028 1.11293967 8 4 C8.8353125 4.7734375 8.8353125 4.7734375 9.6875 5.5625 C11 7 11 7 11 9 C5.70841026 7.59928507 3.22521956 4.14512755 0 0 Z " fill="#353629" transform="translate(261,443)"/>
<path d="M0 0 C3.39914975 1.13304992 4.05254451 2.12518475 6 5 C5.01 5.33 4.02 5.66 3 6 C2.67 6.66 2.34 7.32 2 8 C0.35 6.02 -1.3 4.04 -3 2 C-2.34 2 -1.68 2 -1 2 C-0.67 1.34 -0.34 0.68 0 0 Z " fill="#ABAC91" transform="translate(441,259)"/>
<path d="M0 0 C5.75 -0.125 5.75 -0.125 8 1 C8 1.99 8 2.98 8 4 C7.34 4 6.68 4 6 4 C6.33 5.32 6.66 6.64 7 8 C4.35247996 5.42215154 2.05567935 3.08351902 0 0 Z " fill="#323228" transform="translate(420,263)"/>
<path d="M0 0 C2.31 1.98 4.62 3.96 7 6 C5.68 6.99 4.36 7.98 3 9 C2.01 6.03 1.02 3.06 0 0 Z M-1 5 C1 6 1 6 1 6 Z " fill="#ABAE92" transform="translate(418,262)"/>
<path d="M0 0 C1.65 0.33 3.3 0.66 5 1 C4.67 2.32 4.34 3.64 4 5 C4.99 5.33 5.98 5.66 7 6 C6.67 6.99 6.34 7.98 6 9 C3.69 6.69 1.38 4.38 -1 2 C-0.67 1.34 -0.34 0.68 0 0 Z " fill="#323222" transform="translate(403,244)"/>
<path d="M0 0 C2.375 0.3125 2.375 0.3125 5 1 C5.66 1.99 6.32 2.98 7 4 C7.66 4.33 8.32 4.66 9 5 C8.67 6.32 8.34 7.64 8 9 C7.67 8.01 7.34 7.02 7 6 C6.38125 5.690625 5.7625 5.38125 5.125 5.0625 C2.59402625 3.79701313 1.55151442 2.32727163 0 0 Z " fill="#9B9B82" transform="translate(394,217)"/>
<path d="M0 0 C2.7839183 1.39195915 2.97898997 3.15575779 4 6 C2.35 6.33 0.7 6.66 -1 7 C-0.67 4.69 -0.34 2.38 0 0 Z " fill="#ADAF95" transform="translate(259,440)"/>
<path d="M0 0 C2 1.125 2 1.125 4 3 C4.25 6.1875 4.25 6.1875 4 9 C3.34 8.34 2.68 7.68 2 7 C2 6.01 2 5.02 2 4 C0.68 3.67 -0.64 3.34 -2 3 C-1.34 2.67 -0.68 2.34 0 2 C0 1.34 0 0.68 0 0 Z " fill="#32301E" transform="translate(410,363)"/>
<path d="M0 0 C0.99 0.66 1.98 1.32 3 2 C3.40843923 4.71203652 3.13336867 7.2437142 3 10 C2.67 10 2.34 10 2 10 C1.67 8.35 1.34 6.7 1 5 C0.01 4.67 -0.98 4.34 -2 4 C-1.34 2.68 -0.68 1.36 0 0 Z " fill="#313222" transform="translate(411,328)"/>
<path d="M0 0 C2.88575819 0.39803561 3.82189513 0.79009069 5.75 3.0625 C6.1625 3.701875 6.575 4.34125 7 5 C4.36 4.67 1.72 4.34 -1 4 C-0.67 2.68 -0.34 1.36 0 0 Z " fill="#211E13" transform="translate(391,217)"/>
<path d="M0 0 C0.598125 0.20625 1.19625 0.4125 1.8125 0.625 C1.1525 0.625 0.4925 0.625 -0.1875 0.625 C0.1425 1.615 0.4725 2.605 0.8125 3.625 C0.1525 3.625 -0.5075 3.625 -1.1875 3.625 C-1.5175 4.285 -1.8475 4.945 -2.1875 5.625 C-3.1775 4.305 -4.1675 2.985 -5.1875 1.625 C-2.1875 -0.375 -2.1875 -0.375 0 0 Z " fill="#A8A88C" transform="translate(418.1875,234.375)"/>
<path d="M0 0 C1.32 0.66 2.64 1.32 4 2 C3.01 2.495 3.01 2.495 2 3 C0.86649466 5.01669827 0.86649466 5.01669827 0 7 C-0.99 7 -1.98 7 -3 7 C-2.690625 6.401875 -2.38125 5.80375 -2.0625 5.1875 C-0.89790296 2.91043228 -0.89790296 2.91043228 0 0 Z " fill="#A9AC91" transform="translate(262,218)"/>
<path d="M0 0 C0.99 0.33 1.98 0.66 3 1 C3 1.66 3 2.32 3 3 C3.99 3 4.98 3 6 3 C5.67 3.99 5.34 4.98 5 6 C2.5 4.6875 2.5 4.6875 0 3 C0 2.01 0 1.02 0 0 Z " fill="#343422" transform="translate(381,287)"/>
<path d="M0 0 C0.33 1.32 0.66 2.64 1 4 C0.01 4.495 0.01 4.495 -1 5 C-2.32 3.68 -3.64 2.36 -5 1 C-3 0 -3 0 0 0 Z " fill="#ADAE93" transform="translate(438,255)"/>
<path d="M0 0 C1.65 0 3.3 0 5 0 C5.33 1.32 5.66 2.64 6 4 C5.01 4 4.02 4 3 4 C1.3125 2 1.3125 2 0 0 Z " fill="#333424" transform="translate(411,254)"/>
</svg>
