<?xml version="1.0" encoding="UTF-8"?>
<svg version="1.1" xmlns="http://www.w3.org/2000/svg" width="697" height="682">
<path d="M0 0 C230.01 0 460.02 0 697 0 C697 225.06 697 450.12 697 682 C466.99 682 236.98 682 0 682 C0 456.94 0 231.88 0 0 Z " fill="#CBCAAF" transform="translate(0,0)"/>
<path d="M0 0 C20.0211948 -0.07051497 40.04236393 -0.123194 60.06365776 -0.15543652 C69.36279359 -0.17081442 78.66185164 -0.19172705 87.9609375 -0.22631836 C96.079134 -0.25650217 104.19727411 -0.27564065 112.31552517 -0.28226548 C116.60217417 -0.28612945 120.88866203 -0.295013 125.17525864 -0.31719017 C149.32746406 -0.43723257 173.27712004 0.06194035 196.875 5.875 C197.89722656 6.10574219 198.91945313 6.33648437 199.97265625 6.57421875 C216.00384992 10.37375388 230.05315346 17.93901544 243 28 C244.06541016 28.81404297 244.06541016 28.81404297 245.15234375 29.64453125 C260.76851244 42.35392794 270.966148 63.51187343 273.71484375 83.33984375 C275.97309458 112.3258852 271.63876205 139.62354503 252.84375 162.640625 C240.18411458 177.17246003 225.49222862 186.38573578 208 194 C207.01128906 194.45246094 206.02257812 194.90492188 205.00390625 195.37109375 C197.95304263 198.37684039 190.79301089 200.09399748 183.3125 201.6875 C181.89819702 201.99131592 181.89819702 201.99131592 180.45532227 202.30126953 C161.34961085 206.15228205 142.41346682 206.26069952 123.02319336 206.1373291 C119.40220515 206.11654721 115.78118741 206.10766761 112.16015625 206.09765625 C105.10670068 206.07646618 98.05336205 206.04251743 91 206 C91.08408537 222.36884956 91.17928615 238.73759154 91.28752708 255.10629749 C91.33753532 262.70748214 91.38397903 270.30865663 91.421875 277.90991211 C91.45493485 284.53927915 91.49484205 291.16856458 91.54279006 297.79784125 C91.5679168 301.30425255 91.58973789 304.81061068 91.60334396 308.31708717 C91.61870443 312.24249507 91.64936013 316.16770681 91.68115234 320.09301758 C91.68331253 321.24101334 91.68547272 322.38900909 91.68769836 323.5717926 C91.8086584 335.31424632 93.24177162 346.10143852 100 356 C107.97308372 363.74441019 118.45708245 365.2496355 129.1171875 365.7890625 C131.5566409 365.96755909 133.66352169 366.31147258 136 367 C136 368.65 136 370.3 136 372 C91.12 372 46.24 372 0 372 C0 370.35 0 368.7 0 367 C0.77601562 366.97421875 1.55203125 366.9484375 2.3515625 366.921875 C12.89460375 366.36830243 24.99242606 365.08590038 33.3203125 357.9375 C43.15770333 346.59018407 43.30925377 331.35231635 43.26069641 317.08395386 C43.26452196 315.8635601 43.26834751 314.64316633 43.27228898 313.38579094 C43.28074216 310.0428435 43.28041636 306.70011923 43.27610838 303.35717893 C43.27362061 299.73479166 43.28268031 296.11242918 43.29014587 292.49005127 C43.30283649 285.41193744 43.3046938 278.33386165 43.30234561 271.25573836 C43.30055666 265.50006891 43.3023244 259.74441092 43.30657005 253.98874283 C43.30716524 253.16704671 43.30776043 252.3453506 43.30837366 251.4987546 C43.3095855 249.82909885 43.31079963 248.1594431 43.31201603 246.48978736 C43.32286895 230.86538649 43.32073922 215.24100725 43.31463119 199.61660518 C43.3094589 185.34101785 43.32072971 171.06549869 43.33972941 156.78992485 C43.35912468 142.10377608 43.36736117 127.41765954 43.36360615 112.73149788 C43.36169733 104.49738641 43.36415092 96.26333301 43.37832069 88.02923203 C43.3902567 81.0228685 43.39161422 74.01659885 43.37953053 67.01023398 C43.3736586 63.44006926 43.37249553 59.87007605 43.38453293 56.29992294 C43.39746045 52.42055749 43.38688797 48.54144938 43.3742218 44.66207886 C43.38528323 42.98958063 43.38528323 42.98958063 43.39656812 41.28329456 C43.33209515 31.85990491 42.44356184 21.36407067 36 14 C28.47294025 7.9783522 20.3343503 7.5771513 11.0625 6.875 C9.99708984 6.78863281 8.93167969 6.70226562 7.83398438 6.61328125 C5.22309173 6.40253655 2.61186316 6.19828865 0 6 C0 4.02 0 2.04 0 0 Z " fill="#1B1B1A" transform="translate(120,162)"/>
<path d="M0 0 C79.09638554 0 79.09638554 0 101 21 C109.186083 29.3738372 114.33595849 38.3742947 119 49 C119.42152344 49.94617188 119.84304688 50.89234375 120.27734375 51.8671875 C125.65978993 65.23190292 126.28211567 78.9275119 126.3125 93.125 C126.31787781 94.13329361 126.31787781 94.13329361 126.32336426 95.16195679 C126.39826285 121.30833666 121.56798525 146.1928714 105 167 C104.32324219 167.85207031 103.64648438 168.70414063 102.94921875 169.58203125 C89.8295799 185.1251913 72.47469241 189.67229058 53 194 C35.51 194 18.02 194 0 194 C0 129.98 0 65.96 0 0 Z " fill="#CBC9AE" transform="translate(211,168)"/>
<path d="M0 0 C3.79676519 1.41649046 7.19801093 3.16695751 10.69921875 5.203125 C12.37201904 6.16968018 12.37201904 6.16968018 14.07861328 7.15576172 C14.66709045 7.49734314 15.25556763 7.83892456 15.86187744 8.19085693 C27.45299201 14.91549373 39.14972989 21.39786911 50.9987793 27.65722656 C52.53465698 28.47271973 52.53465698 28.47271973 54.1015625 29.3046875 C55.00213379 29.77890137 55.90270508 30.25311523 56.83056641 30.74169922 C59 32 59 32 61 34 C60.82089326 38.29856183 59.81571862 41.62492649 58.13671875 45.5703125 C55.96344379 50.90862696 54.3975605 56.30537475 52.9375 61.875 C52.67928467 62.8438916 52.42106934 63.8127832 52.1550293 64.81103516 C51.43052033 67.53911032 50.71471338 70.26934619 50 73 C49.53207031 74.74796875 49.53207031 74.74796875 49.0546875 76.53125 C48.3202925 79.34514243 47.64483068 82.1642988 47 85 C46.74476563 86.08539063 46.48953125 87.17078125 46.2265625 88.2890625 C44.03406907 98.60029399 43.30790594 108.89657617 42.73413086 119.41601562 C42.63177124 121.16495117 42.63177124 121.16495117 42.52734375 122.94921875 C42.47312256 123.99424561 42.41890137 125.03927246 42.36303711 126.1159668 C41.89984905 129.79561747 41.30368424 132.8220603 38.47875977 135.37451172 C37.88893311 135.72271973 37.29910645 136.07092773 36.69140625 136.4296875 C36.03293701 136.82841064 35.37446777 137.22713379 34.69604492 137.63793945 C33.63994019 138.25028442 33.63994019 138.25028442 32.5625 138.875 C31.0910028 139.76148138 29.61964879 140.64820046 28.1484375 141.53515625 C27.43139648 141.96070801 26.71435547 142.38625977 25.97558594 142.82470703 C-1.00836576 158.87769066 -26.64625976 178.05363809 -50.37207031 198.60009766 C-51.54863374 199.61185751 -52.73706302 200.60987403 -53.93261719 201.59912109 C-58.79150837 205.69075784 -62.7140401 210.03454527 -66.5 215.125 C-67.05751953 215.86347168 -67.61503906 216.60194336 -68.18945312 217.36279297 C-72.24657597 222.80794075 -75.88291412 228.39445457 -79.34375 234.23828125 C-81.38577585 237.64326303 -83.63102992 240.81669645 -86 244 C-87.65 243.67 -89.3 243.34 -91 243 C-89.68664627 238.64587655 -87.99285519 234.97716095 -85.6875 231.0625 C-84.96275555 229.81816587 -84.23885864 228.57333786 -83.515625 227.328125 C-82.91524414 226.29848633 -82.91524414 226.29848633 -82.30273438 225.24804688 C-79.81485441 220.95486871 -77.37821177 216.63261146 -74.9375 212.3125 C-74.39013184 211.34425293 -73.84276367 210.37600586 -73.27880859 209.37841797 C-67.01906955 198.28835729 -60.843933 187.15139283 -54.67041016 176.01318359 C-52.44966484 172.00727323 -50.22506147 168.00351394 -48 164 C-47.23045672 162.61459001 -46.4609259 161.22917311 -45.69140625 159.84375 C-43.83727668 156.50617141 -41.98201262 153.16922501 -40.12631226 149.83251953 C-38.74144088 147.34225469 -37.35690974 144.85180077 -35.97241211 142.36132812 C-35.28604287 141.12686738 -34.59952103 139.89249146 -33.9128418 138.65820312 C-32.9506215 136.928601 -31.98897073 135.19868207 -31.02734375 133.46875 C-30.46781006 132.46263672 -29.90827637 131.45652344 -29.33178711 130.41992188 C-28.52863969 128.960564 -27.7449525 127.48990501 -27 126 C-25.109375 125.54296875 -25.109375 125.54296875 -22.75 125.1875 C-18.17920503 124.27770801 -15.96065133 122.70081416 -13 119 C-11.02029469 115.04058939 -11.68614749 110.31247414 -12.6875 106.125 C-13.86291624 103.87683053 -13.86291624 103.87683053 -16.0625 102.6875 C-20.68885811 101.60473534 -25.55331372 100.63168688 -29.87890625 103.05078125 C-32.041274 104.81714913 -33.74441907 106.48883814 -35 109 C-35.3276306 113.17729012 -35.22598483 115.55443015 -33.31030273 119.33154297 C-32 123 -32 123 -32.93774414 126.21533203 C-33.54739014 127.30185059 -34.15703613 128.38836914 -34.78515625 129.5078125 C-35.1118631 130.10664246 -35.43856995 130.70547241 -35.775177 131.32244873 C-36.84653152 133.27137775 -37.95356974 135.19724565 -39.0625 137.125 C-39.81578611 138.47809137 -40.5668273 139.83243485 -41.31567383 141.18798828 C-43.17555605 144.53930747 -45.06485447 147.87270336 -46.96911621 151.19897461 C-48.41639431 153.7274697 -49.85171561 156.26272465 -51.2890625 158.796875 C-52.73012172 161.32762037 -54.17603002 163.85515846 -55.63354492 166.37646484 C-59.33045911 172.77331654 -62.87403442 179.24407837 -66.375 185.75 C-73.1032747 198.24985542 -80.03420365 210.63132846 -87 223 C-87.96111988 224.7095329 -88.92206984 226.41916134 -89.8828125 228.12890625 C-91.92000422 231.75366007 -93.95918568 235.37728464 -96 239 C-97.32 238.67 -98.64 238.34 -100 238 C-100.44519595 232.72919797 -99.16588182 229.94386561 -96.5 225.4375 C-87.7934993 209.92684157 -82.62735492 193.53398506 -80 176 C-79.83016602 174.86804199 -79.66033203 173.73608398 -79.48535156 172.56982422 C-76.15392265 149.75284951 -74.07876675 126.93888681 -73.8359375 103.87109375 C-73.82247787 102.80843292 -73.80901825 101.74577209 -73.79515076 100.65090942 C-73.72813693 95.29661836 -73.68705866 89.94456291 -73.69262695 84.58984375 C-73.67495423 82.61066825 -73.65635974 80.6315007 -73.63671875 78.65234375 C-73.64702118 77.73698349 -73.65732361 76.82162323 -73.66793823 75.87852478 C-73.56952572 69.59478507 -73.56952572 69.59478507 -70.60546875 66.49926758 C-69.74566406 66.00450928 -68.88585937 65.50975098 -68 65 C-67.23300781 64.45859375 -66.46601563 63.9171875 -65.67578125 63.359375 C-64.89589844 62.82828125 -64.11601562 62.2971875 -63.3125 61.75 C-42.32958818 47.12085025 -22.65768862 28.19564705 -7 8 C-4.69845187 5.30476601 -2.35789682 2.64599997 0 0 Z " fill="#1A1A1A" transform="translate(457,312)"/>
<path d="M0 0 C4.78608087 0.81328872 8.2837154 2.58963192 12.48046875 4.95703125 C13.70963013 5.62774658 13.70963013 5.62774658 14.96362305 6.31201172 C16.69771921 7.26063624 18.42821268 8.21587254 20.15527344 9.17724609 C22.75838499 10.62529315 25.37138329 12.05360573 27.98828125 13.4765625 C55.75480237 28.60636487 55.75480237 28.60636487 57.79296875 30.64453125 C58.19206934 35.34824697 57.38095428 38.1348011 55.109375 42.23046875 C54.5201123 43.30973633 53.93084961 44.38900391 53.32373047 45.50097656 C52.66769076 46.67385471 52.01160207 47.84670546 51.35546875 49.01953125 C50.67712541 50.25410213 50.00023503 51.48947232 49.32470703 52.72558594 C48.25827095 54.67633359 47.1907916 56.62644298 46.11871338 58.57409668 C42.41876905 65.29744276 38.82795988 72.07708565 35.24267578 78.86206055 C25.08307047 98.0757621 14.79902788 117.22427519 4.171875 136.18408203 C3.15745064 137.99416856 2.14467007 139.80517657 1.1328125 141.61669922 C-0.64335812 144.79477593 -2.42455557 147.96998721 -4.20703125 151.14453125 C-5.05394531 152.6605896 -5.05394531 152.6605896 -5.91796875 154.20727539 C-6.44648437 155.14563232 -6.975 156.08398926 -7.51953125 157.05078125 C-8.22529297 158.30858398 -8.22529297 158.30858398 -8.9453125 159.59179688 C-10.20703125 161.64453125 -10.20703125 161.64453125 -12.20703125 163.64453125 C-17.52775833 163.37629355 -21.62507209 161.74224742 -26.22265625 159.21484375 C-26.87229843 158.86836792 -27.52194061 158.52189209 -28.19126892 158.16491699 C-30.28580663 157.04380141 -32.37148654 155.9072751 -34.45703125 154.76953125 C-35.89723129 153.99340045 -37.33774406 153.21784967 -38.77856445 152.44287109 C-49.37754747 146.72261391 -59.86896054 140.82506346 -70.20703125 134.64453125 C-71.65529297 133.78988281 -71.65529297 133.78988281 -73.1328125 132.91796875 C-75.20703125 131.64453125 -75.20703125 131.64453125 -76.20703125 130.64453125 C-76.75545295 124.8933195 -75.38988228 121.26011507 -72.45703125 116.45703125 C-72.06016113 115.78067627 -71.66329102 115.10432129 -71.25439453 114.4074707 C-69.92024439 112.14391546 -68.56378628 109.8945999 -67.20703125 107.64453125 C-66.19818565 105.94462311 -65.19040248 104.24408407 -64.18359375 102.54296875 C-59.99642721 95.49388908 -55.77999247 88.47046677 -51.33203125 81.58203125 C-49.24969787 78.35168114 -47.32942399 75.09732024 -45.51953125 71.70703125 C-42.24756439 65.59589738 -38.66696199 59.68488333 -35.08764648 53.75097656 C-31.22032008 47.33837535 -27.38844508 40.90597468 -23.58203125 34.45703125 C-23.04126953 33.54139404 -22.50050781 32.62575684 -21.94335938 31.68237305 C-19.38967877 27.3550887 -16.8420179 23.02439257 -14.3046875 18.6875 C-13.85367676 17.91752686 -13.40266602 17.14755371 -12.93798828 16.35424805 C-12.10788079 14.93610858 -11.27929528 13.5170765 -10.45263672 12.09692383 C-9.72390689 10.85194444 -8.98614267 9.61219193 -8.23779297 8.37890625 C-7.22579802 6.6761085 -6.29534742 4.92568785 -5.3671875 3.17578125 C-3.20703125 0.64453125 -3.20703125 0.64453125 0 0 Z " fill="#1A1A19" transform="translate(539.20703125,170.35546875)"/>
<path d="M0 0 C0.99 0.33 1.98 0.66 3 1 C0.33333333 3.66666667 -2.33333333 6.33333333 -5 9 C-5.66 8.67 -6.32 8.34 -7 8 C-4.69 5.36 -2.38 2.72 0 0 Z " fill="#2E2D2B" transform="translate(457,312)"/>
</svg>
